<svg xmlns="http://www.w3.org/2000/svg" xml:space="preserve" width="2550" height="1200" baseProfile="tiny"><path fill="#5F832D" d="M1674.692 599.982c-.095-155.72-55.106-288.588-165.224-398.701C1399.356 91.075 1266.394 35.968 1110.77 36.064c-155.717-.097-288.681 55.01-398.794 165.217-110.112 110.114-165.123 242.982-165.123 398.608 0 155.622 55.011 288.588 165.123 398.794 110.113 110.111 243.077 165.214 398.794 165.214 155.624 0 288.587-55.103 398.699-165.214 110.117-110.206 165.129-243.075 165.223-398.701"/><path fill="#BCDA96" d="M2508.39 387.277c.094-6.958.19-12.132.368-15.609.1-6.113-.274-11.284-.748-15.42-.94-1.791-3.665-2.729-7.996-2.916-330.145-.094-577.739 0-742.862.187-3.098.472-6.486-.469-10.146-2.82-6.024-3.854-9.032-5.83-9.127-5.83a449 449 0 0 0-7.896 1.976c-3.198.749-5.829.563-8.084-.47-2.263-1.035-5.367-.377-9.407 2.065.19-4.134.381-13.162.569-27.269 4.318 0 10.252 1.223 17.858 3.385q11.99 3.667 17.774 3.953c20.973 3.193 36.485 4.417 46.642 3.947 2.541-.284 6.682-.284 12.414 0 4.792-.284 8.464-1.788 10.621-4.797 1.227-1.125 1.884-4.418 2.451-10.06.089-14.293 0-23.323-.284-27.46-.1-3.383-2.446-6.77-7.06-10.057-25.476-2.918-54.906.277-88.204 9.683-3.66 1.317-9.02 1.598-15.606.845-7.616-.754-12.976-.845-15.796-.379-18.053 2.353-34.797 2.73-49.936 1.131-2.156-1.787-4.04-5.455-5.729-11.28-1.604-5.457-3.766-9.028-6.485-10.722-5.929-1.224-11.853-1.224-17.591 0-2.818 1.694-4.981 5.265-6.58 10.722-1.693 5.826-3.577 9.588-5.644 11.378-2.631.468-8.933.468-18.995.09-22.378-.94-34.502-1.411-36.48-1.411-2.729 0-6.116-.94-10.062-3.007-4.803-2.352-8.09-3.667-9.874-4.042-3.293-.285-9.5 1.596-18.526 5.828-3.483-2.633-6.112-4.42-7.906-5.548-3.288-1.972-6.392-2.916-9.205-2.819-18.995.188-33.098 0-42.508-.191-5.923.094-9.685.379-11.283.661-4.234.845-7.143 2.818-8.737 6.018-1.415 4.324-1.884 13.823-1.604 28.494-.095 7.521 2.44 12.221 7.706 14.009 3.767.843 8.464 1.315 14.292 1.315 3.294 0 8.09 0 14.487-.094 4.98-.094 12.504-.094 22.755 0 8.743-.563 15.892-2.632 21.431-6.396 8.19 2.917 13.924 4.236 17.217 4.236 2.819 0 9.121-1.602 18.62-4.704l-.1 19.748c-9.021 1.033-17.675 3.76-26.231 8.274-3.198 1.789-7.613 2.727-13.257 3.008-7.243.472-11.761.847-13.725 1.413-4.144 5.361-7.243 9.493-9.314 12.128-3.762 4.891-7.244 8.462-10.626 10.908-1.878.754-6.201 1.225-12.977 1.317-52.845.095-92.527 0-118.855-.187-.468-3.857-.941-6.678-1.13-8.747-.285-3.382-.097-6.207.662-8.461 1.872-2.633 5.544-6.209 10.994-10.815 4.329-4.421 6.118-8.933 5.365-13.634-.852-2.54-4.14-6.865-9.968-13.07-4.703-5.172-6.96-9.968-6.676-14.479 1.879-6.867 3.099-11.942 3.852-15.519 1.13-6.017 1.225-11.284.378-15.798 9.305-3.477 16.358-6.863 21.063-9.964 2.819-1.694 6.77-4.421 12.13-8.372 4.702-3.102 9.026-5.077 13.16-5.829 12.42-2.538 21.168-4.607 26.333-6.206-4.514-9.121-11.656-14.67-21.529-16.646-7.339-2.254-16.081-3.195-26.334-2.631-11.751 1.034-20.683 1.786-26.516 2.068-1.221-4.327-2.167-7.615-2.914-9.779-1.41-3.854-3.104-6.77-5.082-8.839-2.535-1.785-7.522-3.667-15.043-5.642-6.676-1.689-11.378-4.137-14.293-7.241-22.289-22.191-44.386-34.978-66.108-38.367-25.201-3.475-44.947-2.913-59.428 1.977a235 235 0 0 1-18.244 4.797c-14.291 2.818-26.894 10.153-37.706 21.906-21.533 25.671-34.508 48.618-39.119 68.928-.466 2.07-1.316 5.172-2.256 9.593-1.222 3.667-2.821 6.393-4.985 8.179-12.879 11.099-25.2 18.528-36.86 22.286-2.914.942-9.027 1.318-18.524 1.41-7.709.096-13.636 1.506-17.771 4.329 7.24 7.898 12.977 12.409 17.208 13.82 6.488 2.258 14.669 4.23 24.542 5.546 5.546.755 13.822 1.977 24.917 3.296-5.169 9.684-9.59 15.89-13.162 18.521-4.891 3.667-15.142 9.779-30.846 18.054 2.069 4.608 4.984 11.287 9.121 20.029 3.386 7.805 5.737 14.856 6.864 20.878 1.977 10.248 2.729 20.967 2.166 32.16-.189 4.323-1.506 10.528-3.95 18.898-2.446 8.18-3.855 14.48-3.951 18.995 4.889 3.197 12.788 6.393 23.791 9.591 11.192 3.291 19.18 6.49 23.978 9.498 3.479 2.259 7.897 7.337 13.258 15.328 4.982 7.336 9.875 12.035 14.671 14.009 3.101 1.694 8.744 2.54 16.926 2.634 7.52.096 12.975 1.506 16.455 3.951 5.828 3.949 12.692 9.214 20.871 15.42 3.576 2.728 6.867 6.678 9.688 11.755.47.752 2.726 5.357 6.677 13.821 3.007 5.831 4.793 13.917 5.547 24.167.941 13.164 1.786 21.438 2.633 24.921 3.48 15.609 9.968 38.646 19.373 69.209 4.23 23.413 6.301 42.221 6.205 56.516-.094 2.44.377 10.718 1.313 24.82.566 10.063.189 18.337-1.313 24.828q-1.409 4.797 3.102 12.69c3.008 5.36 4.229 9.595 3.479 12.7-2.635 22.186-3.854 36.577-3.479 43.253.094 2.256.659 6.861 1.504 13.73.657 5.731.94 10.25.845 13.632-2.916 9.403-10.815 14.385-23.884 15.137-.188 3.298-.563 8.183-1.127 14.676-.188 5.829.283 10.621 1.695 14.666 1.033 4.792 3.1 10.437 5.924 16.834 1.689 3.568 4.227 8.928 7.708 16.171 1.787 3.478 2.633 7.804 2.729 13.167 0 3.006-.097 7.522-.378 13.444-.094 3.291-.188 8.369-.188 15.047-.376 5.921-1.315 10.813-3.1 14.574-2.261 4.886-6.114 11.846-11.757 20.872 3.008 5.74 7.52 14.206 13.634 25.485 5.171 9.968 9.216 18.714 11.944 26.241 4.14 11.278 10.625 28.295 19.369 50.585 23.133-4.703 41.943-10.248 56.609-16.833-6.202-25.198-10.905-41.753-13.913-49.743 11.662-4.421 22.377-10.527 32.251-18.43-7.333-28.026-12.789-55.86-16.271-83.593-4.603-19.656-7.617-34.328-9.027-44.198-2.44-16.552-2.719-31.501-1.125-44.854 1.22-9.501 1.599-22.472 1.031-39.118-.843-9.589-1.411-16.928-1.5-21.725-.189-8.363.657-15.417 2.631-21.341.563-2.072 3.672-3.669 9.21-4.8 15.428-1.129 30.094-.373 43.732 2.262 5.267 1.034 11.752 1.597 19.364 1.688 4.329.098 10.726.098 19.373 0 3.956 0 12.703.938 25.965 2.824 10.715 1.5 19.363 1.689 26.038.655 26.238-3.666 44.854-5.547 55.858-5.735 10.535-.472 16.638-.939 18.337-1.13 6.864-.938 12.687-2.815 17.206-5.735 6.485-3.664 13.823-9.215 21.726-16.267 4.418-4.043 11.093-10.158 20.025-18.335 6.77-4.895 23.886-14.579 51.25-28.966 6.574-3.477 14.292-11.001 23.229-22.756 8.743-11.47 16.449-18.995 23.13-22.38 4.329-3.289 11.661-5.83 21.819-7.897 10.246-1.881 17.385-4.421 21.625-7.431 6.296-3.947 14.576-7.616 24.822-10.903 5.828-1.788 14.388-4.608 25.864-8.274 5.354-1.412 11.278-4.14 17.675-8.277 3.761-2.352 9.115-5.925 16.175-10.907 2.909-1.978 7.518-5.923 14.009-11.472 5.822-5.079 10.531-8.844 14.297-11.283 2.72-.753 7.796-.942 15.323-.848 6.585 0 11.655-.752 15.229-2.164 1.414-.561 5.271-1.976 11.666-4.043 4.698-1.599 8.554-3.293 11.289-4.892 1.872-1.786 3.282-4.888 4.034-8.933 1.037-5.45 1.883-8.744 2.451-9.965 1.6-.941 4.981-2.445 10.152-4.421 4.319-1.598 7.611-3.29 9.779-5.077 1.41-1.88 3.193-4.891 5.449-9.499 1.983-4.229 3.767-7.241 5.549-9.121 4.519-4.889 4.697-12.88.569-23.885 5.17-6.016 8.554-10.718 10.158-14.196.84-2.728 1.024-6.491.74-11.475-.277-5.452-.277-9.402.1-11.66 3.672-3.478 8.648-7.238 15.044-11.282a856 856 0 0 1 15.893-10.064c11.939-9.873 17.868-14.667 17.958-14.856-.563-4.513-1.22-9.028-1.878-13.729 1.314-.75 3.198-2.067 5.743-4.043 2.252-1.503 4.509-2.257 6.486-2.16 6.108-.474 15.323-.474 27.737-.097 3.482-.092 7.421-1.315 11.752-3.48 2.351-1.314 5.928-3.383 10.631-6.298l3.197 3.853c2.631-1.691 4.418-2.913 5.165-3.383l4.142 2.258c3.481-.566 7.143-.943 10.624-.943q5.499 0 8.46-.281c2.077.943 3.766 1.693 4.986 2.068l3.108-3.853 2.353 3.478c.93-1.412 2.345-3.384 4.223-6.017 1.604-2.446 2.352-4.703 2.735-6.678 1.316-10.343 2.252-20.874 2.909-31.499 93.377-.095 233.674-.095 420.617-.095m-940.995-38.553v-30.466c17.686.092 28.595.376 32.634.847 6.018 6.111 16.738 8.368 32.257 6.581 1.598-.378 4.418-1.503 8.368-3.385 3.477-1.692 6.392-2.54 8.553-2.633 8.464-.376 21.157-.376 38.174 0 0 12.79.105 22.379.479 28.869-4.05-2.256-6.307-3.385-6.774-3.668-1.6.754-4.229 2.351-8.175 4.795l1.215-5.735-9.779 4.043c-4.323-2.819-8.651-2.915-12.976-.093l-9.779-3.95 1.226 5.642c-5.64-4.418-10.53-5.077-14.575-1.786-4.52-2.916-8.654-2.728-12.42.28l-1.974-4.136c-6.669 3.856-11.939 4.231-15.7 1.411l-4.509 3.384-7.711-4.043-4.609 4.232-6.117-4.137zm123.378 102.122c14.948-2.257 26.605-3.668 34.695-4.139 9.026-.189 20.689-1.408 34.986-3.573 18.236-2.916 29.894-4.513 34.88-4.985 73.16 0 117.078 0 131.742.097-22.755 22.943-37.616 37.142-44.575 42.501-2.725 2.255-6.58 3.478-11.282 3.854-5.64 0-9.685.097-12.319.378-7.049.658-21.535 3.572-43.723 8.745-12.32 3.01-27.176 10.436-44.576 22.193-7.995-3.764-14.197-4.797-18.9-3.2-2.25.661-4.224 2.354-5.638 5.176-1.416 3.386-2.542 5.827-3.388 7.237-.759 2.634-2.915 5.081-6.297 7.241-4.329 3.103-6.97 5.079-7.812 6.019-2.347 2.913-5.923 6.017-10.81 9.31-6.118 4.23-10.063 7.144-11.662 8.462-3.472 3.007-9.031 5.924-16.737 8.839-8.274 3.009-14.009 5.641-17.207 7.992-.089 2.067-1.978 3.48-5.833 4.419-14.477 6.113-22.383 9.308-23.787 9.688-19.747 3.385-35.633 9.497-47.583 18.521-3.288 2.167-7.428 4.139-12.599 5.834-5.93 1.785-10.343 3.009-13.356 3.947-4.317 1.413-11.94 2.916-22.845 4.326-9.778 1.41-17.396 3.199-22.572 5.455-9.872 4.229-18.143 3.944-24.633-.941-26.333-17.68-46.926-32.255-62.065-43.726-5.645-4.607-9.027-8.18-10.152-10.438-1.409-4.042-2.541-11.284-3.572-21.721.469 0 6.297.659 17.391 1.88 7.06.752 12.888.659 17.396-.375 3.293-.752 8.374-1.599 15.145-2.636 6.019-1.128 10.904-2.351 14.665-3.853 1.604-1.318 4.051-3.762 7.434-7.523 3.098-3.292 5.64-5.64 7.622-7.242 4.786-3.479 8.642-8.273 11.751-14.291 1.126-2.634 3.75-5.734 7.801-9.029 4.229-3.571 6.96-6.487 8.274-8.65.379-1.41.937-5.642 1.694-12.881 9.21-1.507 14.486-2.446 15.89-2.822 6.019-1.41 10.715-3.764 14.293-6.959 7.143-6.487 12.883-9.591 17.111-9.591 17.022-1.786 42.508-4.892 76.452-9.121 7.337-.565 18.904-1.975 34.701-4.418m-154.882 14.008c7.154-1.975 13.267-6.487 18.627-13.822a189 189 0 0 1 4.412 16.457c-7.7 4.698-17.205 6.675-28.582 5.926 1.507-5.267 3.475-8.09 5.543-8.561m-113.957 119.8c14.944 7.525 26.984 16.172 36.006 25.764 2.635 2.915 11.572 9.873 26.522 20.878-3.288.655-8.747 3.195-16.554 7.52-6.765 3.669-12.504 5.55-17.302 5.174-9.4.376-18.331-1.693-26.706-6.112-6.58-3.571-15.891-5.082-27.826-4.514-14.486.563-24.176.379-28.684-.657 7.517-14.481 16.548-23.981 27.363-28.4 11.101-4.891 20.122-11.377 27.181-19.653m-42.413-143.401c3.298-2.728 7.711-4.702 13.262-6.113 1.414-.283 6.201-1.127 14.38-2.445-.089 11.098-4.045 19.183-11.65 24.262-5.744 3.48-11.293 5.923-16.839 7.333-3.287-2.82-4.607-6.581-4.139-11.473.473-4.418 2.166-8.274 4.986-11.564m-99.304 47.298 23.136 16.268c8.085 5.548 13.066 10.157 15.049 13.729-.094 2.163-1.32 4.327-3.477 6.3-2.734 2.163-4.808 3.76-6.027 4.7-3.856 2.822-9.122 5.081-15.792 6.396-7.622 1.412-13.265 2.541-16.931 3.668-9.87 3.01-20.124 5.078-30.654 6.021-1.976-15.142-2.258-27.836-.847-37.898 11.189-1.413 19.086-3.386 23.695-6.018 3.012-1.597 6.956-5.924 11.848-13.166m-41.278.659c6.77-4.231 11.001-11.284 12.597-21.343 8.845 7.239 13.823 11.659 15.048 13.069 2.164 4.231-.375 8.181-7.428 11.848-3.011 1.692-6.491 1.975-10.347.753-1.22-.284-4.515-1.693-9.87-4.327"/><path fill="#3D541D" d="M863.462 327.098c-9.591 5.264-18.618 13.541-26.988 25.293-8.744 14.293-15.328 25.015-19.651 31.877-5.456 9.403-13.166 16.549-23.039 21.064-10.063 4.797-26.33 11.754-48.425 20.875.375 6.863.752 11.188 1.125 13.072 3.765 3.385 10.159 6.394 18.998 8.747 9.498 2.725 16.078 5.357 19.651 7.99 1.88 2.636 2.821 6.206 2.918 10.813.091 2.633.187 6.395.187 11.475-14.483-3.293-23.603-4.608-27.272-4.328q-3.103 1.13-11.284 7.617c-4.324 3.574-8.462 5.266-12.132 5.171-15.138-.093-26.516-.093-34.038-.093-13.634-.097-25.012.279-34.04 1.314-.376-6.769-3.29-15.511-8.742-26.141-5.833-11.469-9.031-20.028-9.878-25.857l-1.598-7.898c-12.597-1.036-25.292-1.223-37.986-.377-.754 3.196-1.696 8.087-2.916 14.575-1.317 5.453-3.386 9.874-5.832 13.163-4.892 1.411-11.095 1.881-18.337 1.788-8.367-.282-14.479-.47-18.618-.563-3.668 3.194-6.299 5.735-7.991 7.614-2.823 3.011-4.422 6.208-4.702 9.406-.377 2.538-1.79 5.078-4.139 7.616-3.009 2.726-5.169 4.797-6.394 6.298l-3.759-6.394-4.421 6.865-4.043-6.865-4.229 6.865-4.236-6.865-4.23 6.865-4.229-6.865-4.23 6.865-4.235-6.865-4.325 6.865-3.947-6.488c-.282.188-1.13 1.409-2.544 3.481-.938 1.597-1.972 2.16-3.191 1.5-1.882-2.816-3.482-6.579-4.611-11.187-1.219-5.454-2.069-9.31-2.82-11.941l-18.713.092c-1.788 4.516-2.538 10.438-2.444 17.868-4.232 2.539-7.243 4.606-9.122 6.393-1.599 3.668-4.701 7.804-9.214 12.321-5.454 5.358-8.84 9.212-10.248 11.563-59.713.093-104.473.188-134.283.47-2.445.376-5.453-.281-9.121-1.88-4.135-1.881-7.053-2.818-8.837-2.917-.376-2.162-1.506-4.133-3.573-5.922q-3.668-2.963-5.362-4.516-4.231 1.414-24.26 12.698c-.753 2.256-3.291 6.393-7.617 12.504-3.478 4.985-5.264 9.405-5.172 13.353-.092 0-5.546.095-16.457.283-6.676.094-11.844-1.224-15.326-4.327-6.395-.376-11.191-.656-14.386-.562-5.642.186-10.064 1.503-13.165 4.231-11.659.375-20.406.564-26.236.47-10.063-.095-18.712-.754-26.045-2.165l-9.311-.28c-3.479-.377-6.206-1.695-8.274-3.762-3.669-.188-20.126-.283-49.651-.283-3.197.095-4.796 3.668-4.796 10.627 0 3.48.097 5.732.282 6.676.566 2.445 2.069 3.669 4.514 3.762 23.133.093 39.117.093 47.959-.188 3.29-.846 8.366-1.504 15.139-1.787 6.675-.469 11.756-1.034 15.044-1.881 15.328-.564 29.15-.564 41.376 0 2.444 2.351 5.736 3.764 10.25 4.044 2.537.188 6.301.188 11.564-.094l.094 8.462h6.302v-12.693l23.13-.094.189 6.3 7.146.658c-2.631 5.079-4.51 8.275-5.641 9.685l-7.333.659-2.914 6.392 3.851-2.347 4.798 4.887c-.097 1.225-.752 2.914-1.788 5.266-.563 2.163-.281 3.764 1.036 4.89q7.476 7.76 29.056 22.003c29.526 16.833 67.329 27.834 113.121 32.913 13.729 5.642 32.065 9.874 55.012 12.788 6.297 1.409 14.388 2.067 24.353 1.979q20.452-.426 24.543 0 2.398.276 10.438 2.534c4.324 1.129 7.992 1.693 10.814 1.505 6.582-.189 16.55-.189 29.715 0 2.632-.189 7.148 0 13.352.563 5.549.568 10.062.66 13.258.191 5.645.377 9.498.655 11.475 1.222 4.323 1.128 7.051 3.571 8.086 7.051 1.126 4.703 1.126 10.907 0 18.714-1.506 9.218-2.164 15.42-1.882 18.713.47 7.148 1.317 17.771 2.633 31.972.941 12.695 1.224 23.412.66 31.969 0 11.005.656 19.749 1.882 26.333 5.452 29.246 12.691 51.432 22.003 66.764 3.289 4.606 7.051 12.128 11.377 22.562 1.787 3.763 5.074 6.775 9.872 8.935 1.033.472 5.361 1.979 13.074 4.326 17.865.659 31.875-2.259 42.03-8.741 6.865-3.954 14.859-9.968 23.98-18.338 11.753-10.628 19.37-17.207 22.662-19.749 5.83-4.414 13.914-12.036 23.883-22.848 10.063-8.745 17.49-15.329 22.382-19.935 3.667-3.385 9.967-11.284 18.522-23.886 7.053-10.437 14.201-17.585 21.064-21.252 1.313 3.293 3.667 8.465 6.961 15.519 2.254 6.394 1.971 11.751-.66 16.264l-18.431 34.514c-2.728 4.891-4.229 11.378-4.325 19.465-.095 20.591 1.128 37.889 3.477 52.095 5.643 31.877 11.567 54.816 17.68 68.826q2.679 5.93 7.617 18.338c3.291 7.054 7.053 12.319 11.285 15.993 17.207 11.559 35.543 15.886 55.102 12.979a528 528 0 0 1-1.692 21.526q-.845 12.697.565 21.442c1.317 2.441 3.76 4.982 7.24 7.613 4.513 3.295 7.428 5.549 8.465 6.677-.567 1.6-2.258 4.89-4.989 10.063-2.064 4.139-3.477 7.611-4.133 10.438-1.128 5.548-2.727 13.919-4.609 25.01 2.633.944 7.619 3.104 14.859 6.486 6.207 2.825 11.282 4.702 15.139 5.644 20.968 8.372 49.835 16.832 86.792 25.391 3.667.092 9.214.942 16.547 2.443 7.243 1.505 12.792 2.355 16.553 2.447 6.204.751 15.419 2.161 27.739 4.045 18.243.09 45.794.184 82.467.09 7.526.191 25.579-1.595 54.07-5.269 3.101-.746 10.627-2.064 22.565-3.944 9.311-1.508 16.742-3.197 22.287-5.172-8.744-22.29-15.229-39.307-19.369-50.585-2.728-7.527-6.772-16.273-11.944-26.241-6.114-11.279-10.625-19.745-13.634-25.485 5.643-9.026 9.496-15.986 11.757-20.872 1.784-3.761 2.724-8.653 3.1-14.574 0-6.678.095-11.756.188-15.047.282-5.922.378-10.438.378-13.444-.097-5.363-.943-9.689-2.729-13.167a2720 2720 0 0 1-7.708-16.171c-2.824-6.397-4.891-12.042-5.924-16.834-1.412-4.045-1.883-8.837-1.695-14.666.564-6.493.939-11.378 1.127-14.676 13.069-.752 20.968-5.733 23.884-15.137.095-3.382-.188-7.9-.845-13.632-.846-6.869-1.41-11.475-1.504-13.73-.375-6.676.844-21.067 3.479-43.253.75-3.105-.471-7.34-3.479-12.7q-4.51-7.894-3.102-12.69c1.502-6.491 1.879-14.766 1.313-24.828-.936-14.103-1.407-22.38-1.313-24.82.096-14.295-1.975-33.103-6.205-56.516-9.405-30.563-15.893-53.6-19.373-69.209-.847-3.482-1.691-11.757-2.633-24.921-.754-10.25-2.54-18.335-5.547-24.167-3.951-8.464-6.207-13.069-6.677-13.821-2.822-5.077-6.113-9.027-9.688-11.755-8.179-6.206-15.043-11.471-20.871-15.42-3.48-2.445-8.935-3.855-16.455-3.951-8.183-.094-13.826-.939-16.926-2.634-4.796-1.974-9.689-6.673-14.671-14.009-5.361-7.991-9.78-13.069-13.258-15.328-4.798-3.007-12.786-6.207-23.978-9.498-11.003-3.198-18.902-6.395-23.791-9.591.095-4.515 1.505-10.815 3.951-18.995 2.444-8.37 3.761-14.576 3.95-18.898.563-11.192-.189-21.912-2.166-32.16-1.127-6.022-3.479-13.073-6.864-20.878-4.137-8.742-7.052-15.421-9.121-20.029-17.207-19.933-32.251-33.286-44.854-40.151-16.174-9.214-36.201-14.009-59.992-14.291-15.147-.378-33.86 5.075-55.959 16.36M727.491 634.772c2.632-1.125 6.394-3.009 11.094-5.645-5.545 7.055-10.341 11.101-14.103 11.853-3.668-.566-8.277-1.976-13.917-4.138-6.866-2.537-11.379-4.137-13.636-4.795-.941-8.652.47-15.707 4.045-20.973l12.881 4.893c.093 2.067-.28 5.642-1.127 10.342-.375 4.137.563 7.241 3.008 9.121 3.291 1.602 7.243 1.413 11.755-.658m-478.91-62.718c1.598 1.036 4.043 3.668 7.242 7.804 7.802.659 14.009-.75 18.617-3.948 35.921-.472 89.802-.563 161.643-.282 8.275 10.624 18.43 16.173 30.468 16.833 11.094-.281 22.941 1.408 35.353 4.888 2.259 2.82 4.892 8.747 7.899 17.584.469.754 2.541 2.919 6.021 6.864 2.537 2.73 4.137 5.359 4.608 7.807-14.951 4.604-26.425 7.333-34.229 8.088-3.198.938-8.088 1.314-14.48 1.314-6.49.092-11.378.563-14.483 1.409-4.982 1.129-10.061 1.129-15.14 0-3.667-.938-9.119-1.503-16.641-1.409-7.43.092-12.884-.376-16.644-1.409-25.389-3.765-45.23-7.898-59.523-12.412-43.068-11.851-75.037-24.451-95.726-37.803-2.446-1.129-3.857-3.479-4.325-6.771-.193-3.855-.378-6.77-.66-8.557m304.571-63.38c8.184.095 14.201-1.219 17.866-4.23 5.737-4.323 15.799-5.455 30.47-3.479 4.981.94 12.505 1.788 22.474 2.54 4.982.655 10.531 4.513 16.926 11.658-8.466.47-23.133.659-43.728.377-18.62-.188-33.193.093-43.726 1.125-6.393-1.502-14.104-2.347-23.131-2.442-10.438.095-18.338.19-23.509.095l-.191 6.301c-13.726.375-24.164.282-31.03-.284-2.255-1.409-3.104-5.172-2.443-11.471 3.855-4.326 7.523-8.087 11.285-11.19 13.164-.659 33.099-.755 59.617-.283.375.283 2.066 2.067 5.359 5.267 2.165 2.161 3.481 4.135 3.761 6.016m156.66 143.027c-2.068.941-4.607 1.219-7.52.657-3.385-.848-5.928-1.505-7.427-1.881-.755 1.597-1.884 4.326-3.013 7.993-1.411 3.195-3.384 5.075-5.83 5.735-7.053 1.691-12.882 1.413-17.396-.844-1.601-3.293-1.978-7.433-.752-12.136 1.788-5.544 3.104-9.589 3.857-12.13l5.547-.186c.189 6.298.374 10.06.659 11.189.938 1.126 2.349 1.974 4.419 2.542 1.13.468 2.82 1.031 5.078 1.596l3.854-10.533c9.496 1.788 15.517 3.197 18.338 4.329zm-44.947 26.985c.565-1.314 1.694-2.353 3.48-2.728a31 31 0 0 1 4.701-.56c9.405-.475 15.703-.282 18.9.468 4.984 4.326 9.968 10.06 14.953 17.303 1.317 1.692 1.879 3.762 1.502 5.921-.47 2.256-1.595 3.95-3.573 4.892-3.009 2.257-7.898 5.36-14.479 9.495-5.549 3.952-9.782 7.9-12.602 11.852-5.734 8.742-12.788 14.766-20.688 18.147-2.162-2.634-3.667-4.794-4.702-6.206-1.692-2.35-2.351-4.796-2.067-7.05.281-4.329 1.409-9.405 3.29-15.236 2.164-6.675 3.764-11.659 4.703-14.952 2.254-9.685 4.514-16.739 6.582-21.346"/></svg>